<?xml version="1.0" encoding="utf-8"?>
<!-- Generator: Adobe Illustrator 22.1.0, SVG Export Plug-In . SVG Version: 6.00 Build 0)  -->
<svg version="1.1" id="final" xmlns="http://www.w3.org/2000/svg" xmlns:xlink="http://www.w3.org/1999/xlink" x="0px" y="0px"
	 viewBox="0 0 620 620" style="enable-background:new 0 0 620 620;" xml:space="preserve">
<style type="text/css">
	.st0{fill:#71BF4B;}
	.st1{fill:#BCD639;}
	.st2{fill:#EF3E43;}
	.st3{fill:#BCE6F7;}
	.st4{fill:#7ED2ED;}
	.st5{fill:#1EBFE8;}
	.st6{fill:#F36E33;}
	.st7{fill:#FBB157;}
</style>
<g>
	<path class="st0" d="M558,207.3c-8.3-6.1-17.3-11.9-27-17.5c-18.6-10.5-39.1-19.5-61.2-27c6.9,23.3,12.2,48.3,15.7,74.5
		c16.1,21,30,42.4,41.6,63.7c10.3-20.8,18.5-41.7,24.2-62.3C554.2,227.9,556.5,217.4,558,207.3z"/>
	<path class="st1" d="M522.5,310c-10-19-21.7-37.8-35.1-56.2c1.8,18.3,2.8,37,2.8,56.2s-1,38-2.8,56.2
		C500.8,347.8,512.5,329,522.5,310z"/>
	<path class="st2" d="M475.2,395.7c-11.6,14.2-24.2,28.2-37.8,41.7c-13.6,13.6-27.5,26.2-41.7,37.8c22.5-3.6,44.1-8.6,64.6-15
		C466.6,439.8,471.6,418.2,475.2,395.7z"/>
	<path class="st3" d="M381.3,68.8C360.7,74.5,339.8,82.6,319,93c21.3,11.6,42.7,25.5,63.7,41.6c26.2,3.5,51.2,8.8,74.5,15.7
		c-7.4-22-16.5-42.6-27-61.2c-5.5-9.8-11.4-18.8-17.5-27C402.6,63.5,392.1,65.8,381.3,68.8z"/>
	<path class="st4" d="M375.2,23.4C354.4,7.9,332.5,0,310,0s-44.4,7.9-65.2,23.4C233.6,31.8,223,42.2,213,54.5
		c30.7,5.2,63.6,16.6,96.9,33.7c33.3-17.1,66.2-28.5,96.9-33.7C397,42.2,386.4,31.7,375.2,23.4z"/>
	<path class="st3" d="M558.8,153.4c-3.7-25.6-13.7-46.7-29.6-62.6c-15.9-15.9-37-25.9-62.6-29.6c-13.9-2-28.7-2.1-44.5-0.5
		c18.1,25.4,33.3,56.7,44.7,92.4c35.6,11.5,67,26.7,92.4,44.7C560.9,182.1,560.8,167.3,558.8,153.4z"/>
	<path class="st0" d="M475.2,224.3c-3.6-22.5-8.6-44.1-15-64.6c-20.5-6.3-42.1-11.4-64.6-15c14.2,11.6,28.2,24.2,41.7,37.8
		C451,196.1,463.6,210.1,475.2,224.3z"/>
	<path class="st4" d="M224.3,144.8c-22.5,3.6-44.1,8.6-64.6,15c-6.3,20.5-11.4,42.1-15,64.6c11.6-14.2,24.2-28.2,37.8-41.7
		C196.1,169,210.1,156.4,224.3,144.8z"/>
	<path class="st3" d="M366.2,132.6c-18.4-13.4-37.3-25.1-56.2-35.1c-19,10-37.8,21.7-56.2,35.1c18.3-1.8,37-2.8,56.2-2.8
		S348,130.7,366.2,132.6z"/>
	<path class="st4" d="M189.8,89c-10.5,18.6-19.5,39.1-27,61.2c23.3-6.9,48.3-12.2,74.5-15.7c21-16.1,42.4-30,63.7-41.6
		c-20.8-10.3-41.7-18.5-62.3-24.2c-10.8-3-21.3-5.2-31.4-6.8C201.2,70.3,195.3,79.3,189.8,89z"/>
	<path class="st5" d="M62,207.3c1.5,10.2,3.8,20.6,6.8,31.4c5.7,20.6,13.8,41.5,24.2,62.3c11.6-21.3,25.5-42.7,41.6-63.7
		c3.5-26.2,8.8-51.2,15.7-74.5c-22,7.4-42.6,16.5-61.2,27C79.3,195.3,70.3,201.2,62,207.3z"/>
	<path class="st6" d="M253.8,487.4c18.4,13.4,37.3,25.1,56.2,35.1c19-10,37.8-21.7,56.2-35.1c-18.3,1.8-37,2.8-56.2,2.8
		S272,489.3,253.8,487.4z"/>
	<path class="st7" d="M224.3,475.2c-14.2-11.6-28.2-24.2-41.7-37.8c-13.6-13.6-26.2-27.5-37.8-41.7c3.6,22.5,8.6,44.1,15,64.6
		C180.2,466.6,201.8,471.6,224.3,475.2z"/>
	<path class="st7" d="M62,412.7c8.3,6.1,17.3,11.9,27,17.5c18.6,10.5,39.1,19.5,61.2,27c-6.9-23.3-12.2-48.3-15.7-74.5
		c-16.1-21-30-42.4-41.6-63.7c-10.3,20.8-18.5,41.7-24.2,62.3C65.8,392.1,63.5,402.6,62,412.7z"/>
	<path class="st5" d="M97.5,310c10,19,21.7,37.8,35.1,56.2c-1.8-18.3-2.8-37-2.8-56.2s1-38,2.8-56.2C119.2,272.2,107.5,291,97.5,310
		z"/>
	<path class="st1" d="M558,412.7c-1.5-10.2-3.8-20.6-6.8-31.4c-5.7-20.6-13.8-41.5-24.2-62.3c-11.6,21.3-25.5,42.7-41.6,63.7
		c-3.5,26.2-8.8,51.2-15.7,74.5c22-7.4,42.6-16.5,61.2-27C540.7,424.7,549.7,418.8,558,412.7z"/>
	<path class="st5" d="M203.6,53.1c17.9-23.2,38.4-40.7,60.5-51c-51.7,7.6-99.2,28-139.3,57.7C147.7,51.4,174.5,49.4,203.6,53.1z"/>
	<path class="st3" d="M566.9,203.6c23.2,17.9,40.7,38.4,51,60.5c-7.6-51.7-28-99.2-57.7-139.3C568.6,147.7,570.6,174.5,566.9,203.6z
		"/>
	<path class="st5" d="M153.4,61.2c-25.6,3.7-46.7,13.7-62.6,29.6s-25.9,37-29.6,62.6c-2,13.9-2.1,28.7-0.5,44.5
		c25.4-18.1,56.7-33.3,92.4-44.7c11.5-35.6,26.7-67,44.7-92.4C182.1,59.1,167.3,59.2,153.4,61.2z"/>
	<path class="st6" d="M53.1,416.4c-23.2-17.9-40.7-38.4-51-60.5c7.6,51.7,28,99.2,57.7,139.3C51.4,472.3,49.4,445.5,53.1,416.4z"/>
	<path class="st7" d="M53.1,203.6c-3.7-29.1-1.6-55.9,6.7-78.8C30,164.9,9.7,212.5,2.1,264.1C12.4,242,29.9,221.5,53.1,203.6z"/>
	<path class="st0" d="M566.9,416.4c3.7,29.1,1.6,55.9-6.7,78.8c29.8-40.1,50.1-87.7,57.7-139.3C607.6,378,590.1,398.5,566.9,416.4z"
		/>
	<path class="st2" d="M203.6,566.9c-29.1,3.7-55.9,1.6-78.8-6.7c40.1,29.8,87.7,50.1,139.3,57.7C242,607.6,221.5,590.1,203.6,566.9z
		"/>
	<path class="st1" d="M416.4,566.9c-17.9,23.2-38.4,40.7-60.5,51c51.7-7.6,99.2-28,139.3-57.7C472.3,568.6,445.5,570.6,416.4,566.9z
		"/>
	<path class="st4" d="M416.4,53.1c29.1-3.7,55.9-1.6,78.8,6.7C455.1,30,407.5,9.7,355.9,2.1C378,12.4,398.5,29.9,416.4,53.1z"/>
	<path class="st6" d="M90.8,529.2c15.9,15.9,37,25.9,62.6,29.6c13.9,2,28.8,2.1,44.5,0.5c-18.1-25.4-33.3-56.7-44.7-92.4
		c-35.6-11.5-67-26.7-92.4-44.7c-1.7,15.7-1.6,30.6,0.5,44.5C64.9,492.2,74.9,513.3,90.8,529.2z"/>
	<path class="st7" d="M23.4,244.8C7.9,265.6,0,287.5,0,310s7.9,44.4,23.4,65.2c8.4,11.2,18.8,21.8,31.1,31.8
		c5.2-30.7,16.6-63.6,33.7-96.9c-17.1-33.3-28.5-66.2-33.7-96.9C42.2,223,31.7,233.6,23.4,244.8z"/>
	<path class="st6" d="M238.7,551.2c20.6-5.7,41.5-13.8,62.3-24.2c-21.3-11.6-42.7-25.5-63.7-41.6c-26.2-3.5-51.2-8.8-74.5-15.7
		c7.4,22,16.5,42.6,27,61.2c5.5,9.8,11.4,18.8,17.5,27C217.4,556.5,227.9,554.2,238.7,551.2z"/>
	<path class="st2" d="M430.2,531c10.5-18.6,19.5-39.1,27-61.2c-23.3,6.9-48.3,12.2-74.5,15.7c-21,16.1-42.4,30-63.7,41.6
		c20.8,10.3,41.7,18.5,62.3,24.2c10.8,3,21.3,5.2,31.4,6.8C418.8,549.7,424.7,540.7,430.2,531z"/>
	<path class="st1" d="M466.6,558.8c25.6-3.7,46.7-13.7,62.6-29.6c15.9-15.9,25.9-37,29.6-62.6c2-13.9,2.1-28.8,0.5-44.5
		c-25.4,18.1-56.7,33.3-92.4,44.7c-11.5,35.6-26.7,67-44.7,92.4C437.9,560.9,452.7,560.8,466.6,558.8z"/>
	<path class="st2" d="M244.8,596.6c20.7,15.5,42.7,23.4,65.2,23.4s44.4-7.9,65.2-23.4c11.2-8.4,21.8-18.8,31.8-31.1
		c-30.7-5.2-63.6-16.6-96.9-33.7c-33.3,17.1-66.2,28.5-96.9,33.7C223,577.8,233.6,588.3,244.8,596.6z"/>
	<path class="st0" d="M596.6,375.2c15.5-20.7,23.4-42.7,23.4-65.2s-7.9-44.4-23.4-65.2c-8.4-11.2-18.8-21.8-31.1-31.8
		c-5.2,30.7-16.6,63.6-33.7,96.9c17.1,33.3,28.5,66.2,33.7,96.9C577.8,397,588.3,386.4,596.6,375.2z"/>
</g>
</svg>
